# xmcd
#
# Track frame offsets: 
#        150
#        35343
#        63008
#        92803
#        118180
#        140090
#        157830
#        177490
#        213768
#        231248
#        248160
#        267385
#
# Disc length: 3902 seconds
#
# Revision: 1
# Processed by: cddbd v1.5.2PL0 Copyright (c) Steve Scherf et al.
# Submitted via: ExactAudioCopy v0.95b3
#
DISCID=a50f3c0c
DTITLE=Claus Bockstandt - Voyages
DYEAR=1992
DGENRE=Electronic
TTITLE0=Mystic Voyage
TTITLE1=Desert Stroll
TTITLE2=Grotta del Aqua
TTITLE3=To The Pyramids
TTITLE4=Cheops
TTITLE5=Magic Power
TTITLE6=Visualized Voyage
TTITLE7=Romatnic Dreams
TTITLE8=Time Laps
TTITLE9=Sadness 2035
TTITLE10=Foreign Cultures
TTITLE11=Spaceflight
EXTD=YEAR: 1992
EXTT0=
EXTT1=
EXTT2=
EXTT3=
EXTT4=
EXTT5=
EXTT6=
EXTT7=
EXTT8=
EXTT9=
EXTT10=
EXTT11=
PLAYORDER=
